HIERARCHY
ROOT Hips
{
	OFFSET -0.001795 -0.223333 0.028219
	CHANNELS 6 Xposition Yposition Zposition Zrotation Yrotation Xrotation 
	JOINT LeftUpLeg
	{
		OFFSET 0.069520 -0.091406 -0.006815
		CHANNELS 3 Zrotation Yrotation Xrotation
		JOINT LeftLeg
		{
			OFFSET 0.034277 -0.375199 -0.004496
			CHANNELS 3 Zrotation Yrotation Xrotation
			JOINT LeftFoot
			{
				OFFSET -0.013596 -0.397961 -0.043693
				CHANNELS 3 Zrotation Yrotation Xrotation
				JOINT LeftToe
				{
					OFFSET 0.026358 -0.055791 0.119288
					CHANNELS 3 Zrotation Yrotation Xrotation
					End Site
					{
						OFFSET 0.000000 0.000000 0.000000
					}
				}
			}
		}
	}
	JOINT RightUpLeg
	{
		OFFSET -0.067670 -0.090522 -0.004320
		CHANNELS 3 Zrotation Yrotation Xrotation
		JOINT RightLeg
		{
			OFFSET -0.038290 -0.382569 -0.008850
			CHANNELS 3 Zrotation Yrotation Xrotation
			JOINT RightFoot
			{
				OFFSET 0.015774 -0.398415 -0.042312
				CHANNELS 3 Zrotation Yrotation Xrotation
				JOINT RightToe
				{
					OFFSET -0.025372 -0.048144 0.123348
					CHANNELS 3 Zrotation Yrotation Xrotation
					End Site
					{
						OFFSET 0.000000 0.000000 0.000000
					}
				}
			}
		}
	}
	JOINT Spine
	{
		OFFSET -0.002533 0.108963 -0.026696
		CHANNELS 3 Zrotation Yrotation Xrotation
		JOINT Spine1
		{
			OFFSET 0.005487 0.135180 0.001092
			CHANNELS 3 Zrotation Yrotation Xrotation
			JOINT Spine2
			{
				OFFSET 0.001457 0.052922 0.025425
				CHANNELS 3 Zrotation Yrotation Xrotation
				JOINT Neck
				{
					OFFSET -0.002778 0.213870 -0.042857
					CHANNELS 3 Zrotation Yrotation Xrotation
					JOINT Head
					{
						OFFSET 0.005152 0.064970 0.051349
						CHANNELS 3 Zrotation Yrotation Xrotation
						End Site
						{
							OFFSET 0.000000 0.000000 0.000000
						}
					}
				}
				JOINT LeftShoulder
				{
					OFFSET 0.078845 0.121749 -0.034090
					CHANNELS 3 Zrotation Yrotation Xrotation
					JOINT LeftArm
					{
						OFFSET 0.090977 0.030469 -0.008868
						CHANNELS 3 Zrotation Yrotation Xrotation
						JOINT LeftForeArm
						{
							OFFSET 0.259612 -0.012772 -0.027456
							CHANNELS 3 Zrotation Yrotation Xrotation
							JOINT LeftHand
							{
								OFFSET 0.249234 0.008986 -0.001171
								CHANNELS 3 Zrotation Yrotation Xrotation
								End Site
								{
									OFFSET 0.000000 0.000000 0.000000
								}
							}
						}
					}
				}
				JOINT RightShoulder
				{
					OFFSET -0.081759 0.118833 -0.038615
					CHANNELS 3 Zrotation Yrotation Xrotation
					JOINT RightArm
					{
						OFFSET -0.096012 0.032551 -0.009143
						CHANNELS 3 Zrotation Yrotation Xrotation
						JOINT RightForeArm
						{
							OFFSET -0.253742 -0.013329 -0.021401
							CHANNELS 3 Zrotation Yrotation Xrotation
							JOINT RightHand
							{
								OFFSET -0.255298 0.007772 -0.005559
								CHANNELS 3 Zrotation Yrotation Xrotation
								End Site
								{
									OFFSET 0.000000 0.000000 0.000000
								}
							}
						}
					}
				}
			}
		}
	}
}
MOTION
Frames: 15
Frame Time: 0.050000
0.000000 0.941856 0.000000 -0.820437 -10.845946 7.998417 7.611915 -0.195072 -6.543284 1.487987 0.092287 -5.733075 2.325813 7.281924 13.144538 0.000000 0.000000 0.000000 -4.740812 0.630368 -5.656039 -1.285904 -0.052242 -3.249852 -1.673116 -8.840915 10.178764 0.000000 0.000000 0.000000 5.008426 0.180139 -3.708903 -4.114252 1.792403 -3.470464 -1.020108 6.087382 4.380563 3.619943 -1.657263 -10.066573 0.000000 0.000000 0.000000 -14.287770 -1.443204 -0.722815 -56.503088 -6.454703 -3.609058 -6.567807 -23.390725 2.238093 0.000000 0.000000 0.000000 12.977263 -2.405796 -2.280386 60.554630 6.606368 -2.403498 7.350137 25.961188 2.455378 0.000000 0.000000 0.000000 
0.000015 0.940595 0.000612 -1.046828 -12.108605 8.738339 7.236854 -0.195138 -5.800540 2.014219 0.147677 -7.276931 2.587756 7.516620 12.926100 0.000000 0.000000 0.000000 -4.400510 0.723175 -6.918241 -1.894045 -0.012003 -3.046897 -1.141063 -8.219361 10.761844 0.000000 0.000000 0.000000 5.450543 0.191254 -3.864798 -4.355760 1.846757 -4.276344 -1.392584 6.601299 4.064354 3.393233 -1.497159 -10.169146 0.000000 0.000000 0.000000 -15.320748 -0.596113 -1.218148 -56.091451 -5.893132 -3.808849 -6.589214 -22.919700 2.198862 0.000000 0.000000 0.000000 13.087918 -2.919906 -2.567043 61.414940 5.162988 -3.153152 8.615832 25.860544 2.699875 0.000000 0.000000 0.000000 
0.000000 0.940101 0.000844 -0.830195 -11.503081 8.648203 7.327029 -0.213019 -6.585038 1.917507 0.022662 -5.096384 1.994392 6.370491 11.429948 0.000000 0.000000 0.000000 -4.263526 0.734707 -7.190261 -2.270831 0.040882 -2.499749 -1.773681 -8.953179 9.709955 0.000000 0.000000 0.000000 5.027246 0.152481 -3.505080 -3.447735 1.439189 -4.859736 -1.982945 6.136879 3.932759 4.147080 -1.991440 -10.270267 0.000000 0.000000 0.000000 -15.767804 -0.966691 -1.073893 -55.760696 -5.909951 -3.776811 -6.367721 -20.285006 1.893714 0.000000 0.000000 0.000000 14.179702 -2.637192 -2.573915 61.148540 4.980548 -3.231121 6.745058 24.635396 2.177098 0.000000 0.000000 0.000000 
-0.000124 0.939785 0.000944 -0.865176 -12.152529 9.258245 7.663075 -0.193742 -6.813658 1.472324 0.110408 -6.075074 1.910363 6.333858 12.576268 0.000000 0.000000 0.000000 -4.207961 0.796381 -7.917494 -2.486447 0.065716 -2.254245 -1.895948 -9.423648 10.147385 0.000000 0.000000 0.000000 4.891643 0.175834 -3.818501 -3.802637 1.588984 -4.694153 -1.179829 5.219959 3.221550 3.419188 -1.672329 -9.522274 0.000000 0.000000 0.000000 -16.338982 -0.356584 -1.167603 -55.985047 -6.219443 -3.565271 -5.402227 -19.157741 1.663541 0.000000 0.000000 0.000000 13.387489 -2.347158 -2.584901 61.898004 4.739919 -3.368309 6.807056 24.388021 2.076993 0.000000 0.000000 0.000000 
-0.000395 0.940107 0.000926 -0.763505 -12.073474 9.064692 7.336392 -0.217962 -7.219418 1.812264 0.043878 -5.350818 1.828878 6.234804 12.754430 0.000000 0.000000 0.000000 -4.093371 0.786130 -7.825856 -2.660969 0.068805 -2.396907 -1.901355 -9.499896 10.341743 0.000000 0.000000 0.000000 4.757914 0.166951 -3.694772 -3.508519 1.479417 -4.328738 -1.326951 4.901837 3.177623 3.465268 -1.633877 -10.321834 0.000000 0.000000 0.000000 -16.563806 -0.328864 -1.155834 -55.689602 -6.580389 -3.384841 -5.782403 -18.056225 1.626190 0.000000 0.000000 0.000000 13.383344 -2.908117 -2.885260 61.981500 4.360473 -3.587978 7.429516 24.371857 2.185297 0.000000 0.000000 0.000000 
-0.000737 0.940848 0.000790 -0.720532 -12.524221 9.449030 7.353819 -0.219746 -7.535117 1.566566 0.074621 -5.578958 2.002854 6.515117 13.094319 0.000000 0.000000 0.000000 -4.212820 0.824512 -8.240362 -2.782987 0.048263 -2.837089 -1.709809 -9.568776 11.355754 0.000000 0.000000 0.000000 4.904265 0.193727 -4.012048 -3.741429 1.574260 -4.333624 -1.168206 4.774863 3.415310 3.540722 -1.772647 -9.778175 0.000000 0.000000 0.000000 -16.583893 0.126301 -1.297994 -55.643059 -6.909407 -3.249304 -6.259943 -17.812498 1.690532 0.000000 0.000000 0.000000 13.453029 -2.766771 -2.893012 62.301173 4.223723 -3.724062 7.822815 23.956362 2.201667 0.000000 0.000000 0.000000 
-0.001010 0.941076 0.000541 -0.699938 -12.884243 9.356120 7.280927 -0.217227 -7.650183 1.550532 0.063869 -5.383827 2.156318 6.816571 13.743164 0.000000 0.000000 0.000000 -4.252207 0.824332 -8.212039 -2.741187 0.036956 -2.969723 -1.547456 -9.464140 11.771578 0.000000 0.000000 0.000000 4.965438 0.180696 -3.846289 -3.972106 1.688754 -3.940687 -1.091074 4.510530 3.461566 3.522886 -1.775801 -9.940110 0.000000 0.000000 0.000000 -16.717668 0.196069 -1.249332 -55.596647 -6.620700 -3.391244 -7.038818 -18.790151 1.931378 0.000000 0.000000 0.000000 13.695434 -2.704655 -2.974770 62.378520 3.823254 -3.971676 8.639256 24.705794 2.415855 0.000000 0.000000 0.000000 
-0.001228 0.941279 0.000312 -0.668193 -13.300693 9.461894 7.136755 -0.224878 -7.893011 1.375668 0.049240 -4.873197 2.347870 6.951097 12.866659 0.000000 0.000000 0.000000 -4.020545 0.836728 -8.355218 -2.917340 0.029202 -3.243998 -1.475709 -9.370438 11.726062 0.000000 0.000000 0.000000 5.093555 0.172622 -3.762028 -4.205488 1.805921 -3.567414 -1.277203 4.483979 3.442839 3.663516 -1.929087 -9.477684 0.000000 0.000000 0.000000 -16.111876 0.218635 -1.179208 -55.675571 -6.355115 -3.507172 -8.520311 -20.406324 2.382622 0.000000 0.000000 0.000000 14.119465 -2.875976 -3.156085 62.579208 3.366395 -4.234129 9.356842 25.631733 2.652892 0.000000 0.000000 0.000000 
-0.001433 0.941229 0.000121 -0.496953 -13.420880 9.363261 6.992188 -0.233784 -7.925907 1.180861 0.062578 -4.818494 2.370936 6.996162 12.996886 0.000000 0.000000 0.000000 -4.152153 0.816006 -8.064872 -2.834668 -0.005026 -3.763542 -1.643116 -9.729668 11.877143 0.000000 0.000000 0.000000 4.999427 0.140340 -3.427486 -4.306430 1.863226 -3.317995 -1.256803 4.463136 3.198864 3.548840 -1.857482 -9.408094 0.000000 0.000000 0.000000 -15.924971 0.291563 -1.201060 -55.737858 -5.965638 -3.661974 -9.914596 -22.304167 2.898170 0.000000 0.000000 0.000000 14.509305 -3.303075 -3.438889 62.629891 2.654918 -4.590304 10.197195 26.312583 2.902046 0.000000 0.000000 0.000000 
-0.001699 0.941298 -0.000082 -0.244803 -13.275458 9.308783 6.970488 -0.243700 -8.342848 0.740391 0.075981 -4.288286 2.400476 7.013960 12.638744 0.000000 0.000000 0.000000 -4.133569 0.793841 -7.788850 -3.183177 -0.031710 -4.532541 -1.873152 -10.256466 12.259982 0.000000 0.000000 0.000000 5.036343 0.126207 -3.285899 -4.519740 1.967389 -3.159781 -1.676346 4.367427 3.439250 3.287904 -1.674927 -9.480802 0.000000 0.000000 0.000000 -15.096694 0.353157 -1.177610 -55.842596 -5.731717 -3.789041 -11.731501 -24.186103 3.557268 0.000000 0.000000 0.000000 14.952065 -3.727544 -3.702891 63.230425 2.201575 -4.910638 10.448606 27.165833 3.070724 0.000000 0.000000 0.000000 
-0.002018 0.940944 -0.000635 0.113680 -12.867754 9.328330 6.649472 -0.284676 -8.648216 0.672128 0.066612 -3.919230 1.979948 6.337533 12.427435 0.000000 0.000000 0.000000 -4.281474 0.777954 -7.574128 -3.393438 -0.056341 -5.134806 -2.077825 -10.585375 12.321938 0.000000 0.000000 0.000000 4.818962 0.095723 -2.996609 -4.655529 2.026784 -3.215748 -2.010607 4.292592 3.739445 3.003158 -1.463124 -9.601321 0.000000 0.000000 0.000000 -14.560009 0.189856 -1.084079 -56.033954 -5.789328 -3.797045 -12.893099 -26.316303 4.170173 0.000000 0.000000 0.000000 14.850516 -4.452434 -3.995606 64.466267 1.582822 -5.399914 10.414705 28.193033 3.211309 0.000000 0.000000 0.000000 
-0.002466 0.940640 -0.001640 0.447445 -12.403586 9.544273 6.364384 -0.336519 -9.533857 0.565574 0.053339 -3.346815 1.611083 5.666672 11.771517 0.000000 0.000000 0.000000 -4.498876 0.789721 -7.708284 -3.526392 -0.068240 -5.439438 -2.607487 -11.506756 12.450626 0.000000 0.000000 0.000000 4.589335 0.051908 -2.565727 -5.019093 2.200414 -3.041910 -2.260076 4.290324 3.880547 3.332868 -1.654424 -9.715523 0.000000 0.000000 0.000000 -14.622559 -0.200728 -0.946496 -55.368182 -5.596611 -3.863006 -14.322116 -29.149320 5.020126 0.000000 0.000000 0.000000 14.560532 -4.764323 -4.040079 65.822898 0.890940 -5.931516 11.532095 30.052278 3.756290 0.000000 0.000000 0.000000 
-0.002949 0.940588 -0.003241 0.428461 -11.706475 9.724823 6.342435 -0.369138 -10.404417 0.604140 0.019602 -2.577405 1.092922 4.804961 11.403104 0.000000 0.000000 0.000000 -4.221237 0.791750 -7.828922 -3.479379 -0.076186 -5.565605 -3.312632 -12.714514 12.618331 0.000000 0.000000 0.000000 4.374542 -0.016123 -1.814022 -5.092149 2.257071 -2.684971 -2.449231 4.709287 3.829459 3.540518 -1.715090 -9.878599 0.000000 0.000000 0.000000 -14.572091 -0.130492 -1.139493 -54.303126 -5.568558 -3.802061 -17.402768 -32.464255 6.485456 0.000000 0.000000 0.000000 14.554190 -5.318652 -4.159794 65.988717 -0.143306 -6.463080 13.659398 32.998532 4.852679 0.000000 0.000000 0.000000 
-0.003509 0.940096 -0.005125 0.579879 -11.415102 9.260234 6.098563 -0.397175 -10.777945 0.820710 -0.033689 -1.800437 0.535791 3.807315 10.966663 0.000000 0.000000 0.000000 -4.577575 0.773150 -7.602788 -3.180055 -0.049045 -4.916509 -3.742191 -13.206068 11.804626 0.000000 0.000000 0.000000 3.646448 -0.112692 -0.341418 -5.124516 2.310908 -2.075827 -2.356749 5.370165 3.606489 4.693865 -2.447270 -9.698171 0.000000 0.000000 0.000000 -14.900412 -0.104880 -1.353863 -52.090747 -4.424615 -4.118909 -23.907162 -37.281714 9.701834 0.000000 0.000000 0.000000 14.151902 -5.328515 -3.953477 65.383798 -1.436181 -7.031083 19.188905 37.942730 7.637076 0.000000 0.000000 0.000000 
-0.004016 0.939291 -0.007048 0.650482 -10.573800 9.377349 6.145864 -0.430492 -11.802551 0.492885 -0.032975 -0.782056 0.279926 3.293188 10.209524 0.000000 0.000000 0.000000 -4.636223 0.803605 -8.116121 -2.945849 -0.025415 -4.357022 -4.618423 -14.447205 10.801639 0.000000 0.000000 0.000000 3.506468 -0.190074 0.728755 -5.506605 2.524713 -1.457956 -2.685077 5.888234 3.683064 4.860811 -2.509559 -9.531105 0.000000 0.000000 0.000000 -14.278365 0.243021 -1.654715 -49.594676 -2.400749 -4.714377 -35.278794 -43.606108 16.198531 0.000000 0.000000 0.000000 13.613374 -5.071477 -3.572454 63.530883 -2.929047 -7.525941 29.981534 43.647115 13.546837 0.000000 0.000000 0.000000 
